# xmcd
#
# Track frame offsets:
#	150
#	22677
#	39027
#	58612
#	74842
#	93717
#	110100
#	127997
#	149982
#	164117
#	185812
#	209367
#	228522
#	246407
#	263502
#	285335
#	303215
#	318662
#
# Disc length: 4412 seconds
#
# Revision: 5
# Processed by: cddbd v1.5.2PL0 Copyright (c) Steve Scherf et al.
# Submitted via: EZCDAudioConverter 4.0.1.1
#
DISCID=15113a12
DTITLE=Various Artist - Hardcore Heaven Vol 4 CD1
DYEAR=1998
DGENRE=Hardcore
TTITLE0=Sy and Unknown - Listen To The Ace (Exclusive Album Mix)
TTITLE1=DJ Seduction - Sub Dub (DJ Storm Remix)
TTITLE2=Sy and Unknown feat. Becks - Forever Shining
TTITLE3=Mystic and Fire - True Love (Sy and Unknown Remix)
TTITLE4=Vinyl Groover - Hardcore Vibes (Sy and Unknown Remix)
TTITLE5=Dream Sequence - Hardcore Is The Future
TTITLE6=Sy and Unknown - Command Your Soul
TTITLE7=DJ Seduction - So In Love (DNA Remix)
TTITLE8=QFX - Freedom (Seduction and DNA Remix)
TTITLE9=DNA - Somewhere Out There
TTITLE10=DJ Storm - Beating Of My Heart
TTITLE11=Dream Sequence - Clearly
TTITLE12=DJ Vibes - Powerplay (Exclusive Album Mix)
TTITLE13=Stompy - Smiling Eyes (Remix)
TTITLE14=Go Mental - Hold Me Now (Remix)
TTITLE15=DJ Seduction - Leaving The World Behind
TTITLE16=DJ Kaos - Heart Of Glass
TTITLE17=Phase and DJ Sniper - Fantasy
EXTD=
EXTT0=
EXTT1=
EXTT2=
EXTT3=
EXTT4=
EXTT5=
EXTT6=
EXTT7=
EXTT8=
EXTT9=
EXTT10=
EXTT11=
EXTT12=
EXTT13=
EXTT14=
EXTT15=
EXTT16=
EXTT17=
PLAYORDER=
